<svg width="276" height="85" viewBox="0 0 276 85" fill="none" xmlns="http://www.w3.org/2000/svg">
<path fill-rule="evenodd" clip-rule="evenodd" d="M50.4315 39.3997L53.4053 28.8751H67.2011C74.4679 28.8751 78.9006 25.555 80.9074 18.4633L82.0253 14.5787C84.5855 5.57288 80.4099 0 71.2146 0H11.1461L0 39.3997H50.4315ZM71.1587 10.6376L68.8165 19.1352H56.1611L58.5648 10.6658L71.1587 10.6376ZM87.1511 39.3997L90.846 32.8162H107.934V39.3997H119.192V0H97.1234L74.11 39.3997H87.1511ZM103.267 10.694H107.934V23.2457H96.1955L103.267 10.694ZM166.018 14.5787L164.995 18.1245H164.973C163.508 23.3474 160.73 26.498 156.515 27.8136L160.037 39.3997H148.019L144.743 28.5363H137.476L134.402 39.3997H122.703L133.843 0H155.185C164.38 0 168.562 5.45995 166.018 14.5787ZM155.135 10.6376H142.541L140.132 19.1352H152.798L155.135 10.6376ZM175.974 39.3997L187.114 0H175.415L164.268 39.3997H175.974ZM91.1704 60.782L104.368 45.0289H119.522L108.382 84.4286H96.6764L103.105 61.8999L92.2213 74.8017H84.6974L80.6 62.6227L74.4456 84.4286H24.014L35.1602 45.0289H85.7594L91.1704 60.782ZM135.145 45.0289L112.132 84.4286H125.173L128.868 77.8394H145.956V84.4286H157.208V45.0289H135.145ZM134.24 68.2746L141.288 55.7229H145.956V68.2746H134.24ZM199.893 45.0289L196.718 56.2876H185.734L177.774 84.4286H166.074L174.034 56.2876H161.222L164.397 45.0289H199.893ZM212.263 56.2876H229.983L233.22 45.0289H214.326C207.059 45.0289 202.626 48.3489 200.62 55.4406L196.494 69.8499C193.878 79.0816 198.11 84.4286 207.305 84.4286H222.017L225.193 73.1699H207.473L212.263 56.2876ZM259.436 59.0994L263.422 45.0289H275.121L263.975 84.4286H252.275L256.255 70.3581H242.879L238.899 84.4286H227.199L238.346 45.0289H250.045L246.065 59.0994H259.436Z" fill="#F8FF13"/>
</svg>
